<svg width="20" height="20" viewBox="0 0 20 20" fill="none" xmlns="http://www.w3.org/2000/svg">
<path d="M17.7891 8.19594C17.7687 6.07956 17.7379 2.88135 17.7379 2.4237C17.7379 1.71561 17.7379 0.530409 16.0972 0.0934509C15.8643 0.0315132 15.6239 0 15.3828 0C14.2873 0 13.5579 0.652427 13.4781 0.726982C13.456 0.747735 13.4347 0.769192 13.4149 0.790906C13.3929 0.814925 11.0501 3.36718 10.1401 4.33551C10.0926 4.38604 10.0458 4.4369 10 4.48756C9.95424 4.4369 9.90737 4.38604 9.8599 4.33551C8.94084 3.35757 6.60866 0.81659 6.58538 0.79129C6.56522 0.769128 6.54388 0.747671 6.52163 0.726854C6.44214 0.652427 5.71334 0 4.61715 0C4.37606 0 4.13564 0.0315132 3.90276 0.0934509C2.26214 0.530409 2.26214 1.71561 2.26214 2.4237C2.26214 2.88135 2.23124 6.07956 2.21086 8.19594C2.19593 9.74983 2.1875 10.6336 2.1875 10.729C2.1875 11.2521 2.58668 12.4654 3.6866 13.6642C4.49556 14.5461 7.81069 17.91 8.8029 18.9151C8.80812 18.9211 8.81357 18.9271 8.81902 18.9327C9.07206 19.1898 9.30389 19.4254 9.50356 19.6279C9.57462 19.6999 9.67852 19.7413 9.78854 19.7413H10.2115C10.329 19.7413 10.4407 19.6924 10.5112 19.6101L10.9774 19.1366C10.9838 19.1309 10.9906 19.1243 11.0002 19.1147C11.4498 18.6596 15.418 14.6402 16.3134 13.6642C17.4132 12.4654 17.8125 11.2521 17.8125 10.729C17.8125 10.6336 17.8041 9.74983 17.7891 8.19594Z" fill="#706D65"/>
<path d="M10.0004 18.394V7.34516C10.0004 6.6406 9.77649 6.03211 8.84347 5.03931C7.91045 4.04652 5.55925 1.48447 5.55925 1.48447C5.55925 1.48447 5.0119 0.972055 4.29034 1.16421C3.56878 1.35636 3.56878 1.69801 3.56878 2.42391C3.56878 3.1498 3.49414 10.473 3.49414 10.7292C3.49414 10.9855 3.79271 11.9676 4.71333 12.971C5.63389 13.9745 10.0004 18.394 10.0004 18.394Z" fill="#EBE041"/>
<path d="M10 18.394V7.34516C10 6.6406 10.2239 6.03211 11.1569 5.03931C12.09 4.04652 14.4412 1.48447 14.4412 1.48447C14.4412 1.48447 14.9885 0.972055 15.7101 1.16421C16.4316 1.35636 16.4316 1.69801 16.4316 2.42391C16.4316 3.1498 16.5063 10.473 16.5063 10.7292C16.5063 10.9855 16.2077 11.9676 15.2871 12.971C14.3665 13.9745 10 18.394 10 18.394Z" fill="#2BA899"/>
</svg>
